<mxfile host="app.diagrams.net" modified="2022-08-26T12:07:47.707Z" agent="5.0 (Macintosh; Intel Mac OS X 10_15_7) AppleWebKit/537.36 (KHTML, like Gecko) Chrome/104.0.0.0 Safari/537.36" etag="FahnNqNW9XqHVtWneHFc" version="20.2.6" type="github">
  <diagram id="uMWNtPz83nksv4eATlQm" name="第 1 页">
    <mxGraphModel dx="1234" dy="768" grid="1" gridSize="10" guides="1" tooltips="1" connect="1" arrows="1" fold="1" page="1" pageScale="1" pageWidth="3300" pageHeight="4681" math="0" shadow="0">
      <root>
        <mxCell id="0" />
        <mxCell id="1" parent="0" />
        <mxCell id="FV6NNWEBZr1uqeipVd97-103" value="" style="rounded=0;whiteSpace=wrap;html=1;labelBackgroundColor=#FFFFFF;fontColor=#000000;strokeWidth=1;" vertex="1" parent="1">
          <mxGeometry x="870" y="580" width="890" height="850" as="geometry" />
        </mxCell>
        <mxCell id="FV6NNWEBZr1uqeipVd97-28" value="" style="rounded=0;whiteSpace=wrap;html=1;labelBackgroundColor=#FFFFFF;fontColor=#000000;" vertex="1" parent="1">
          <mxGeometry x="190" y="655" width="490" height="60" as="geometry" />
        </mxCell>
        <mxCell id="FV6NNWEBZr1uqeipVd97-5" value="flink data source sub task" style="text;html=1;resizable=0;autosize=1;align=center;verticalAlign=middle;points=[];fillColor=none;strokeColor=none;rounded=0;" vertex="1" parent="1">
          <mxGeometry y="230" width="160" height="30" as="geometry" />
        </mxCell>
        <mxCell id="FV6NNWEBZr1uqeipVd97-6" value="kafka" style="shape=cylinder3;whiteSpace=wrap;html=1;boundedLbl=1;backgroundOutline=1;size=15;" vertex="1" parent="1">
          <mxGeometry x="530" y="60" width="60" height="80" as="geometry" />
        </mxCell>
        <mxCell id="FV6NNWEBZr1uqeipVd97-9" style="rounded=0;orthogonalLoop=1;jettySize=auto;html=1;exitX=1;exitY=0;exitDx=0;exitDy=0;entryX=0.5;entryY=1;entryDx=0;entryDy=0;entryPerimeter=0;" edge="1" parent="1" source="FV6NNWEBZr1uqeipVd97-7" target="FV6NNWEBZr1uqeipVd97-6">
          <mxGeometry relative="1" as="geometry" />
        </mxCell>
        <mxCell id="FV6NNWEBZr1uqeipVd97-25" style="edgeStyle=none;rounded=0;orthogonalLoop=1;jettySize=auto;html=1;exitX=0.5;exitY=1;exitDx=0;exitDy=0;" edge="1" parent="1" source="FV6NNWEBZr1uqeipVd97-7" target="FV6NNWEBZr1uqeipVd97-13">
          <mxGeometry relative="1" as="geometry" />
        </mxCell>
        <mxCell id="FV6NNWEBZr1uqeipVd97-26" value="&lt;div style=&quot;font-family: Menlo, Monaco, &amp;quot;Courier New&amp;quot;, monospace; font-size: 12px; line-height: 18px;&quot;&gt;&lt;span style=&quot;background-color: rgb(255, 255, 255);&quot;&gt;PnRcmdRequest&lt;/span&gt;&lt;/div&gt;" style="edgeLabel;html=1;align=center;verticalAlign=middle;resizable=0;points=[];" vertex="1" connectable="0" parent="FV6NNWEBZr1uqeipVd97-25">
          <mxGeometry x="-0.2" y="1" relative="1" as="geometry">
            <mxPoint as="offset" />
          </mxGeometry>
        </mxCell>
        <mxCell id="FV6NNWEBZr1uqeipVd97-7" value="sub task" style="ellipse;whiteSpace=wrap;html=1;aspect=fixed;" vertex="1" parent="1">
          <mxGeometry x="390" y="205" width="80" height="80" as="geometry" />
        </mxCell>
        <mxCell id="FV6NNWEBZr1uqeipVd97-10" style="rounded=0;orthogonalLoop=1;jettySize=auto;html=1;exitX=0;exitY=0;exitDx=0;exitDy=0;" edge="1" parent="1" source="FV6NNWEBZr1uqeipVd97-8">
          <mxGeometry relative="1" as="geometry">
            <mxPoint x="560" y="140" as="targetPoint" />
          </mxGeometry>
        </mxCell>
        <mxCell id="FV6NNWEBZr1uqeipVd97-8" value="sub task" style="ellipse;whiteSpace=wrap;html=1;aspect=fixed;" vertex="1" parent="1">
          <mxGeometry x="660" y="205" width="80" height="80" as="geometry" />
        </mxCell>
        <mxCell id="FV6NNWEBZr1uqeipVd97-12" value="" style="shape=table;startSize=0;container=1;collapsible=0;childLayout=tableLayout;" vertex="1" parent="1">
          <mxGeometry x="400" y="340" width="60" height="240" as="geometry" />
        </mxCell>
        <mxCell id="FV6NNWEBZr1uqeipVd97-13" value="" style="shape=tableRow;horizontal=0;startSize=0;swimlaneHead=0;swimlaneBody=0;top=0;left=0;bottom=0;right=0;collapsible=0;dropTarget=0;fillColor=none;points=[[0,0.5],[1,0.5]];portConstraint=eastwest;" vertex="1" parent="FV6NNWEBZr1uqeipVd97-12">
          <mxGeometry width="60" height="40" as="geometry" />
        </mxCell>
        <mxCell id="FV6NNWEBZr1uqeipVd97-14" value="" style="shape=partialRectangle;html=1;whiteSpace=wrap;connectable=0;overflow=hidden;fillColor=none;top=0;left=0;bottom=0;right=0;pointerEvents=1;" vertex="1" parent="FV6NNWEBZr1uqeipVd97-13">
          <mxGeometry width="60" height="40" as="geometry">
            <mxRectangle width="60" height="40" as="alternateBounds" />
          </mxGeometry>
        </mxCell>
        <mxCell id="FV6NNWEBZr1uqeipVd97-15" value="" style="shape=tableRow;horizontal=0;startSize=0;swimlaneHead=0;swimlaneBody=0;top=0;left=0;bottom=0;right=0;collapsible=0;dropTarget=0;fillColor=none;points=[[0,0.5],[1,0.5]];portConstraint=eastwest;" vertex="1" parent="FV6NNWEBZr1uqeipVd97-12">
          <mxGeometry y="40" width="60" height="40" as="geometry" />
        </mxCell>
        <mxCell id="FV6NNWEBZr1uqeipVd97-16" value="" style="shape=partialRectangle;html=1;whiteSpace=wrap;connectable=0;overflow=hidden;fillColor=none;top=0;left=0;bottom=0;right=0;pointerEvents=1;" vertex="1" parent="FV6NNWEBZr1uqeipVd97-15">
          <mxGeometry width="60" height="40" as="geometry">
            <mxRectangle width="60" height="40" as="alternateBounds" />
          </mxGeometry>
        </mxCell>
        <mxCell id="FV6NNWEBZr1uqeipVd97-17" value="" style="shape=tableRow;horizontal=0;startSize=0;swimlaneHead=0;swimlaneBody=0;top=0;left=0;bottom=0;right=0;collapsible=0;dropTarget=0;fillColor=none;points=[[0,0.5],[1,0.5]];portConstraint=eastwest;" vertex="1" parent="FV6NNWEBZr1uqeipVd97-12">
          <mxGeometry y="80" width="60" height="40" as="geometry" />
        </mxCell>
        <mxCell id="FV6NNWEBZr1uqeipVd97-18" value="" style="shape=partialRectangle;html=1;whiteSpace=wrap;connectable=0;overflow=hidden;fillColor=none;top=0;left=0;bottom=0;right=0;pointerEvents=1;" vertex="1" parent="FV6NNWEBZr1uqeipVd97-17">
          <mxGeometry width="60" height="40" as="geometry">
            <mxRectangle width="60" height="40" as="alternateBounds" />
          </mxGeometry>
        </mxCell>
        <mxCell id="FV6NNWEBZr1uqeipVd97-19" value="" style="shape=tableRow;horizontal=0;startSize=0;swimlaneHead=0;swimlaneBody=0;top=0;left=0;bottom=0;right=0;collapsible=0;dropTarget=0;fillColor=none;points=[[0,0.5],[1,0.5]];portConstraint=eastwest;" vertex="1" parent="FV6NNWEBZr1uqeipVd97-12">
          <mxGeometry y="120" width="60" height="40" as="geometry" />
        </mxCell>
        <mxCell id="FV6NNWEBZr1uqeipVd97-20" value="" style="shape=partialRectangle;html=1;whiteSpace=wrap;connectable=0;overflow=hidden;fillColor=none;top=0;left=0;bottom=0;right=0;pointerEvents=1;" vertex="1" parent="FV6NNWEBZr1uqeipVd97-19">
          <mxGeometry width="60" height="40" as="geometry">
            <mxRectangle width="60" height="40" as="alternateBounds" />
          </mxGeometry>
        </mxCell>
        <mxCell id="FV6NNWEBZr1uqeipVd97-21" value="" style="shape=tableRow;horizontal=0;startSize=0;swimlaneHead=0;swimlaneBody=0;top=0;left=0;bottom=0;right=0;collapsible=0;dropTarget=0;fillColor=none;points=[[0,0.5],[1,0.5]];portConstraint=eastwest;" vertex="1" parent="FV6NNWEBZr1uqeipVd97-12">
          <mxGeometry y="160" width="60" height="40" as="geometry" />
        </mxCell>
        <mxCell id="FV6NNWEBZr1uqeipVd97-22" value="" style="shape=partialRectangle;html=1;whiteSpace=wrap;connectable=0;overflow=hidden;fillColor=none;top=0;left=0;bottom=0;right=0;pointerEvents=1;" vertex="1" parent="FV6NNWEBZr1uqeipVd97-21">
          <mxGeometry width="60" height="40" as="geometry">
            <mxRectangle width="60" height="40" as="alternateBounds" />
          </mxGeometry>
        </mxCell>
        <mxCell id="FV6NNWEBZr1uqeipVd97-23" value="" style="shape=tableRow;horizontal=0;startSize=0;swimlaneHead=0;swimlaneBody=0;top=0;left=0;bottom=0;right=0;collapsible=0;dropTarget=0;fillColor=none;points=[[0,0.5],[1,0.5]];portConstraint=eastwest;" vertex="1" parent="FV6NNWEBZr1uqeipVd97-12">
          <mxGeometry y="200" width="60" height="40" as="geometry" />
        </mxCell>
        <mxCell id="FV6NNWEBZr1uqeipVd97-24" value="" style="shape=partialRectangle;html=1;whiteSpace=wrap;connectable=0;overflow=hidden;fillColor=none;top=0;left=0;bottom=0;right=0;pointerEvents=1;" vertex="1" parent="FV6NNWEBZr1uqeipVd97-23">
          <mxGeometry width="60" height="40" as="geometry">
            <mxRectangle width="60" height="40" as="alternateBounds" />
          </mxGeometry>
        </mxCell>
        <mxCell id="FV6NNWEBZr1uqeipVd97-27" value="fix length queue" style="text;html=1;resizable=0;autosize=1;align=center;verticalAlign=middle;points=[];fillColor=none;strokeColor=none;rounded=0;labelBackgroundColor=#FFFFFF;fontColor=#000000;" vertex="1" parent="1">
          <mxGeometry x="50" y="430" width="110" height="30" as="geometry" />
        </mxCell>
        <mxCell id="FV6NNWEBZr1uqeipVd97-42" style="edgeStyle=none;rounded=0;orthogonalLoop=1;jettySize=auto;html=1;exitX=0.5;exitY=1;exitDx=0;exitDy=0;entryX=0.5;entryY=0;entryDx=0;entryDy=0;fontColor=#000000;" edge="1" parent="1" source="FV6NNWEBZr1uqeipVd97-29" target="FV6NNWEBZr1uqeipVd97-37">
          <mxGeometry relative="1" as="geometry" />
        </mxCell>
        <mxCell id="FV6NNWEBZr1uqeipVd97-46" value="async go func" style="edgeLabel;html=1;align=center;verticalAlign=middle;resizable=0;points=[];fontColor=#000000;" vertex="1" connectable="0" parent="FV6NNWEBZr1uqeipVd97-42">
          <mxGeometry x="0.1195" y="-1" relative="1" as="geometry">
            <mxPoint x="1" as="offset" />
          </mxGeometry>
        </mxCell>
        <mxCell id="FV6NNWEBZr1uqeipVd97-43" style="edgeStyle=none;rounded=0;orthogonalLoop=1;jettySize=auto;html=1;exitX=0.5;exitY=1;exitDx=0;exitDy=0;fontColor=#000000;" edge="1" parent="1" source="FV6NNWEBZr1uqeipVd97-29" target="FV6NNWEBZr1uqeipVd97-38">
          <mxGeometry relative="1" as="geometry" />
        </mxCell>
        <mxCell id="FV6NNWEBZr1uqeipVd97-44" style="edgeStyle=none;rounded=0;orthogonalLoop=1;jettySize=auto;html=1;exitX=0.5;exitY=1;exitDx=0;exitDy=0;entryX=0.5;entryY=0;entryDx=0;entryDy=0;fontColor=#000000;" edge="1" parent="1" source="FV6NNWEBZr1uqeipVd97-29" target="FV6NNWEBZr1uqeipVd97-40">
          <mxGeometry relative="1" as="geometry" />
        </mxCell>
        <mxCell id="FV6NNWEBZr1uqeipVd97-45" style="edgeStyle=none;rounded=0;orthogonalLoop=1;jettySize=auto;html=1;exitX=0.5;exitY=1;exitDx=0;exitDy=0;entryX=0.5;entryY=0;entryDx=0;entryDy=0;fontColor=#000000;" edge="1" parent="1" source="FV6NNWEBZr1uqeipVd97-29" target="FV6NNWEBZr1uqeipVd97-39">
          <mxGeometry relative="1" as="geometry" />
        </mxCell>
        <mxCell id="FV6NNWEBZr1uqeipVd97-29" value="consumer" style="ellipse;whiteSpace=wrap;html=1;aspect=fixed;labelBackgroundColor=#FFFFFF;fontColor=#000000;" vertex="1" parent="1">
          <mxGeometry x="210" y="655" width="60" height="60" as="geometry" />
        </mxCell>
        <mxCell id="FV6NNWEBZr1uqeipVd97-30" value="consumer" style="ellipse;whiteSpace=wrap;html=1;aspect=fixed;labelBackgroundColor=#FFFFFF;fontColor=#000000;" vertex="1" parent="1">
          <mxGeometry x="300" y="655" width="60" height="60" as="geometry" />
        </mxCell>
        <mxCell id="FV6NNWEBZr1uqeipVd97-34" style="edgeStyle=none;rounded=0;orthogonalLoop=1;jettySize=auto;html=1;exitX=0.5;exitY=0;exitDx=0;exitDy=0;fontColor=#000000;" edge="1" parent="1" source="FV6NNWEBZr1uqeipVd97-31" target="FV6NNWEBZr1uqeipVd97-23">
          <mxGeometry relative="1" as="geometry" />
        </mxCell>
        <mxCell id="FV6NNWEBZr1uqeipVd97-35" value="consume" style="edgeLabel;html=1;align=center;verticalAlign=middle;resizable=0;points=[];fontColor=#000000;" vertex="1" connectable="0" parent="FV6NNWEBZr1uqeipVd97-34">
          <mxGeometry x="0.0933" relative="1" as="geometry">
            <mxPoint as="offset" />
          </mxGeometry>
        </mxCell>
        <mxCell id="FV6NNWEBZr1uqeipVd97-31" value="consumer" style="ellipse;whiteSpace=wrap;html=1;aspect=fixed;labelBackgroundColor=#FFFFFF;fontColor=#000000;" vertex="1" parent="1">
          <mxGeometry x="400" y="655" width="60" height="60" as="geometry" />
        </mxCell>
        <mxCell id="FV6NNWEBZr1uqeipVd97-32" value="consumer" style="ellipse;whiteSpace=wrap;html=1;aspect=fixed;labelBackgroundColor=#FFFFFF;fontColor=#000000;" vertex="1" parent="1">
          <mxGeometry x="490" y="655" width="60" height="60" as="geometry" />
        </mxCell>
        <mxCell id="FV6NNWEBZr1uqeipVd97-33" value="consumer" style="ellipse;whiteSpace=wrap;html=1;aspect=fixed;labelBackgroundColor=#FFFFFF;fontColor=#000000;" vertex="1" parent="1">
          <mxGeometry x="580" y="655" width="60" height="60" as="geometry" />
        </mxCell>
        <mxCell id="FV6NNWEBZr1uqeipVd97-36" value="go consumer task" style="text;html=1;resizable=0;autosize=1;align=center;verticalAlign=middle;points=[];fillColor=none;strokeColor=none;rounded=0;labelBackgroundColor=#FFFFFF;fontColor=#000000;" vertex="1" parent="1">
          <mxGeometry x="40" y="670" width="120" height="30" as="geometry" />
        </mxCell>
        <mxCell id="FV6NNWEBZr1uqeipVd97-37" value="compute" style="ellipse;whiteSpace=wrap;html=1;aspect=fixed;labelBackgroundColor=#FFFFFF;fontColor=#000000;" vertex="1" parent="1">
          <mxGeometry x="150" y="780" width="60" height="60" as="geometry" />
        </mxCell>
        <mxCell id="FV6NNWEBZr1uqeipVd97-38" value="compute" style="ellipse;whiteSpace=wrap;html=1;aspect=fixed;labelBackgroundColor=#FFFFFF;fontColor=#000000;" vertex="1" parent="1">
          <mxGeometry x="210" y="780" width="60" height="60" as="geometry" />
        </mxCell>
        <mxCell id="FV6NNWEBZr1uqeipVd97-39" value="compute" style="ellipse;whiteSpace=wrap;html=1;aspect=fixed;labelBackgroundColor=#FFFFFF;fontColor=#000000;" vertex="1" parent="1">
          <mxGeometry x="330" y="780" width="60" height="60" as="geometry" />
        </mxCell>
        <mxCell id="FV6NNWEBZr1uqeipVd97-40" value="compute" style="ellipse;whiteSpace=wrap;html=1;aspect=fixed;labelBackgroundColor=#FFFFFF;fontColor=#000000;" vertex="1" parent="1">
          <mxGeometry x="270" y="780" width="60" height="60" as="geometry" />
        </mxCell>
        <mxCell id="FV6NNWEBZr1uqeipVd97-47" value="do work/goroutine" style="text;html=1;resizable=0;autosize=1;align=center;verticalAlign=middle;points=[];fillColor=none;strokeColor=none;rounded=0;labelBackgroundColor=#FFFFFF;fontColor=#000000;" vertex="1" parent="1">
          <mxGeometry x="40" y="790" width="120" height="30" as="geometry" />
        </mxCell>
        <mxCell id="FV6NNWEBZr1uqeipVd97-90" style="edgeStyle=orthogonalEdgeStyle;rounded=0;orthogonalLoop=1;jettySize=auto;html=1;exitX=0.5;exitY=1;exitDx=0;exitDy=0;entryX=0.5;entryY=0;entryDx=0;entryDy=0;fontColor=#000000;" edge="1" parent="1" source="FV6NNWEBZr1uqeipVd97-48" target="FV6NNWEBZr1uqeipVd97-50">
          <mxGeometry relative="1" as="geometry" />
        </mxCell>
        <mxCell id="FV6NNWEBZr1uqeipVd97-91" value="&lt;span style=&quot;font-family: Menlo, Monaco, &amp;quot;Courier New&amp;quot;, monospace; font-size: 12px;&quot;&gt;PnRcmdRequest&lt;/span&gt;" style="edgeLabel;html=1;align=center;verticalAlign=middle;resizable=0;points=[];fontColor=#000000;" vertex="1" connectable="0" parent="FV6NNWEBZr1uqeipVd97-90">
          <mxGeometry x="-0.2533" y="-1" relative="1" as="geometry">
            <mxPoint as="offset" />
          </mxGeometry>
        </mxCell>
        <mxCell id="FV6NNWEBZr1uqeipVd97-48" value="&lt;span style=&quot;font-family: Menlo, Monaco, &amp;quot;Courier New&amp;quot;, monospace;&quot;&gt;PnRcmdRequest&lt;/span&gt;" style="rounded=1;whiteSpace=wrap;html=1;labelBackgroundColor=#FFFFFF;fontColor=#000000;" vertex="1" parent="1">
          <mxGeometry x="1042" y="150" width="100" height="40" as="geometry" />
        </mxCell>
        <mxCell id="FV6NNWEBZr1uqeipVd97-92" style="edgeStyle=orthogonalEdgeStyle;rounded=0;orthogonalLoop=1;jettySize=auto;html=1;exitX=0.5;exitY=1;exitDx=0;exitDy=0;entryX=0.5;entryY=0;entryDx=0;entryDy=0;fontColor=#000000;" edge="1" parent="1" source="FV6NNWEBZr1uqeipVd97-50" target="FV6NNWEBZr1uqeipVd97-51">
          <mxGeometry relative="1" as="geometry" />
        </mxCell>
        <mxCell id="FV6NNWEBZr1uqeipVd97-93" value="mpb request url" style="edgeLabel;html=1;align=center;verticalAlign=middle;resizable=0;points=[];fontColor=#000000;" vertex="1" connectable="0" parent="FV6NNWEBZr1uqeipVd97-92">
          <mxGeometry x="-0.0353" y="4" relative="1" as="geometry">
            <mxPoint y="1" as="offset" />
          </mxGeometry>
        </mxCell>
        <mxCell id="FV6NNWEBZr1uqeipVd97-50" value="&lt;div&gt;&lt;font face=&quot;Menlo, Monaco, Courier New, monospace&quot;&gt;ProtocolConv&lt;/font&gt;&lt;/div&gt;" style="rounded=0;whiteSpace=wrap;html=1;labelBackgroundColor=#FFFFFF;fontColor=#000000;" vertex="1" parent="1">
          <mxGeometry x="1037" y="227.5" width="110" height="35" as="geometry" />
        </mxCell>
        <mxCell id="FV6NNWEBZr1uqeipVd97-94" style="edgeStyle=orthogonalEdgeStyle;rounded=0;orthogonalLoop=1;jettySize=auto;html=1;exitX=0.5;exitY=1;exitDx=0;exitDy=0;fontColor=#000000;entryX=0.5;entryY=0;entryDx=0;entryDy=0;" edge="1" parent="1" source="FV6NNWEBZr1uqeipVd97-51" target="FV6NNWEBZr1uqeipVd97-98">
          <mxGeometry relative="1" as="geometry">
            <mxPoint x="1092" y="380" as="targetPoint" />
          </mxGeometry>
        </mxCell>
        <mxCell id="FV6NNWEBZr1uqeipVd97-95" value="&lt;span style=&quot;font-family: Menlo, Monaco, &amp;quot;Courier New&amp;quot;, monospace; font-size: 12px;&quot;&gt;MbpResponse&lt;/span&gt;" style="edgeLabel;html=1;align=center;verticalAlign=middle;resizable=0;points=[];fontColor=#000000;" vertex="1" connectable="0" parent="FV6NNWEBZr1uqeipVd97-94">
          <mxGeometry x="-0.3" y="-3" relative="1" as="geometry">
            <mxPoint as="offset" />
          </mxGeometry>
        </mxCell>
        <mxCell id="FV6NNWEBZr1uqeipVd97-51" value="&lt;font face=&quot;Menlo, Monaco, Courier New, monospace&quot;&gt;MbpRecall&lt;/font&gt;" style="rounded=0;whiteSpace=wrap;html=1;labelBackgroundColor=#FFFFFF;fontColor=#000000;" vertex="1" parent="1">
          <mxGeometry x="1037" y="305" width="110" height="35" as="geometry" />
        </mxCell>
        <mxCell id="FV6NNWEBZr1uqeipVd97-53" value="codis" style="shape=cylinder3;whiteSpace=wrap;html=1;boundedLbl=1;backgroundOutline=1;size=15;" vertex="1" parent="1">
          <mxGeometry x="1620" y="800" width="60" height="80" as="geometry" />
        </mxCell>
        <mxCell id="FV6NNWEBZr1uqeipVd97-130" style="edgeStyle=orthogonalEdgeStyle;rounded=0;orthogonalLoop=1;jettySize=auto;html=1;exitX=0.5;exitY=1;exitDx=0;exitDy=0;fontColor=#000000;endArrow=classic;endFill=1;" edge="1" parent="1" source="FV6NNWEBZr1uqeipVd97-54" target="FV6NNWEBZr1uqeipVd97-126">
          <mxGeometry relative="1" as="geometry" />
        </mxCell>
        <mxCell id="FV6NNWEBZr1uqeipVd97-131" value="[]byte" style="edgeLabel;html=1;align=center;verticalAlign=middle;resizable=0;points=[];fontColor=#000000;" vertex="1" connectable="0" parent="FV6NNWEBZr1uqeipVd97-130">
          <mxGeometry x="-0.0353" relative="1" as="geometry">
            <mxPoint as="offset" />
          </mxGeometry>
        </mxCell>
        <mxCell id="FV6NNWEBZr1uqeipVd97-54" value="&lt;span style=&quot;font-family: Menlo, Monaco, &amp;quot;Courier New&amp;quot;, monospace;&quot;&gt;CodisGet(cate)&lt;/span&gt;" style="rounded=0;whiteSpace=wrap;html=1;labelBackgroundColor=#FFFFFF;fontColor=#000000;" vertex="1" parent="1">
          <mxGeometry x="1250" y="870" width="110" height="35" as="geometry" />
        </mxCell>
        <mxCell id="FV6NNWEBZr1uqeipVd97-118" style="edgeStyle=orthogonalEdgeStyle;rounded=0;orthogonalLoop=1;jettySize=auto;html=1;exitX=0;exitY=0.5;exitDx=0;exitDy=0;entryX=1;entryY=0.5;entryDx=0;entryDy=0;fontColor=#000000;" edge="1" parent="1" source="FV6NNWEBZr1uqeipVd97-56" target="FV6NNWEBZr1uqeipVd97-114">
          <mxGeometry relative="1" as="geometry" />
        </mxCell>
        <mxCell id="FV6NNWEBZr1uqeipVd97-119" style="edgeStyle=orthogonalEdgeStyle;rounded=0;orthogonalLoop=1;jettySize=auto;html=1;exitX=0.5;exitY=1;exitDx=0;exitDy=0;entryX=0.5;entryY=0;entryDx=0;entryDy=0;fontColor=#000000;endArrow=classic;endFill=1;" edge="1" parent="1" source="FV6NNWEBZr1uqeipVd97-56" target="FV6NNWEBZr1uqeipVd97-111">
          <mxGeometry relative="1" as="geometry" />
        </mxCell>
        <mxCell id="FV6NNWEBZr1uqeipVd97-121" value="itemlistkey" style="edgeLabel;html=1;align=center;verticalAlign=middle;resizable=0;points=[];fontColor=#000000;" vertex="1" connectable="0" parent="FV6NNWEBZr1uqeipVd97-119">
          <mxGeometry x="-0.7391" relative="1" as="geometry">
            <mxPoint x="-67" y="40" as="offset" />
          </mxGeometry>
        </mxCell>
        <mxCell id="FV6NNWEBZr1uqeipVd97-123" style="edgeStyle=orthogonalEdgeStyle;rounded=0;orthogonalLoop=1;jettySize=auto;html=1;exitX=0.5;exitY=1;exitDx=0;exitDy=0;entryX=0.5;entryY=0;entryDx=0;entryDy=0;fontColor=#000000;endArrow=classic;endFill=1;" edge="1" parent="1" source="FV6NNWEBZr1uqeipVd97-56" target="FV6NNWEBZr1uqeipVd97-54">
          <mxGeometry relative="1" as="geometry" />
        </mxCell>
        <mxCell id="FV6NNWEBZr1uqeipVd97-124" value="catelistkey" style="edgeLabel;html=1;align=center;verticalAlign=middle;resizable=0;points=[];fontColor=#000000;" vertex="1" connectable="0" parent="FV6NNWEBZr1uqeipVd97-123">
          <mxGeometry x="0.6923" y="3" relative="1" as="geometry">
            <mxPoint y="3" as="offset" />
          </mxGeometry>
        </mxCell>
        <mxCell id="FV6NNWEBZr1uqeipVd97-140" style="edgeStyle=orthogonalEdgeStyle;rounded=0;orthogonalLoop=1;jettySize=auto;html=1;exitX=0.5;exitY=0;exitDx=0;exitDy=0;entryX=1;entryY=0.5;entryDx=0;entryDy=0;entryPerimeter=0;fontColor=#6666FF;startArrow=classic;startFill=1;endArrow=none;endFill=0;endSize=8;" edge="1" parent="1" source="FV6NNWEBZr1uqeipVd97-56" target="FV6NNWEBZr1uqeipVd97-105">
          <mxGeometry relative="1" as="geometry" />
        </mxCell>
        <mxCell id="FV6NNWEBZr1uqeipVd97-141" value="&lt;font color=&quot;#000000&quot;&gt;userid&lt;/font&gt;" style="edgeLabel;html=1;align=center;verticalAlign=middle;resizable=0;points=[];fontColor=#6666FF;" vertex="1" connectable="0" parent="FV6NNWEBZr1uqeipVd97-140">
          <mxGeometry x="-0.5187" relative="1" as="geometry">
            <mxPoint y="1" as="offset" />
          </mxGeometry>
        </mxCell>
        <mxCell id="FV6NNWEBZr1uqeipVd97-56" value="&lt;span style=&quot;font-family: Menlo, Monaco, &amp;quot;Courier New&amp;quot;, monospace;&quot;&gt;CacheKey&lt;/span&gt;" style="rounded=0;whiteSpace=wrap;html=1;labelBackgroundColor=#FFFFFF;fontColor=#000000;" vertex="1" parent="1">
          <mxGeometry x="1180" y="755.5" width="110" height="35" as="geometry" />
        </mxCell>
        <mxCell id="FV6NNWEBZr1uqeipVd97-59" value="RecommendList" style="swimlane;fontStyle=0;childLayout=stackLayout;horizontal=1;startSize=26;fillColor=none;horizontalStack=0;resizeParent=1;resizeParentMax=0;resizeLast=0;collapsible=1;marginBottom=0;labelBackgroundColor=#FFFFFF;fontColor=#000000;" vertex="1" parent="1">
          <mxGeometry x="1210" y="269" width="140" height="136" as="geometry" />
        </mxCell>
        <mxCell id="FV6NNWEBZr1uqeipVd97-60" value="+ userid" style="text;strokeColor=none;fillColor=none;align=left;verticalAlign=top;spacingLeft=4;spacingRight=4;overflow=hidden;rotatable=0;points=[[0,0.5],[1,0.5]];portConstraint=eastwest;labelBackgroundColor=#FFFFFF;fontColor=#000000;" vertex="1" parent="FV6NNWEBZr1uqeipVd97-59">
          <mxGeometry y="26" width="140" height="26" as="geometry" />
        </mxCell>
        <mxCell id="FV6NNWEBZr1uqeipVd97-61" value="+ batchid" style="text;strokeColor=none;fillColor=none;align=left;verticalAlign=top;spacingLeft=4;spacingRight=4;overflow=hidden;rotatable=0;points=[[0,0.5],[1,0.5]];portConstraint=eastwest;labelBackgroundColor=#FFFFFF;fontColor=#000000;" vertex="1" parent="FV6NNWEBZr1uqeipVd97-59">
          <mxGeometry y="52" width="140" height="28" as="geometry" />
        </mxCell>
        <mxCell id="FV6NNWEBZr1uqeipVd97-62" value="+ gtime: time.Now" style="text;strokeColor=none;fillColor=none;align=left;verticalAlign=top;spacingLeft=4;spacingRight=4;overflow=hidden;rotatable=0;points=[[0,0.5],[1,0.5]];portConstraint=eastwest;labelBackgroundColor=#FFFFFF;fontColor=#000000;" vertex="1" parent="FV6NNWEBZr1uqeipVd97-59">
          <mxGeometry y="80" width="140" height="30" as="geometry" />
        </mxCell>
        <mxCell id="FV6NNWEBZr1uqeipVd97-63" value="+ List: []Dunit（item/cate）" style="text;strokeColor=none;fillColor=none;align=left;verticalAlign=top;spacingLeft=4;spacingRight=4;overflow=hidden;rotatable=0;points=[[0,0.5],[1,0.5]];portConstraint=eastwest;labelBackgroundColor=#FFFFFF;fontColor=#000000;" vertex="1" parent="FV6NNWEBZr1uqeipVd97-59">
          <mxGeometry y="110" width="140" height="26" as="geometry" />
        </mxCell>
        <mxCell id="FV6NNWEBZr1uqeipVd97-64" value="RecommendListS" style="swimlane;fontStyle=0;childLayout=stackLayout;horizontal=1;startSize=26;fillColor=none;horizontalStack=0;resizeParent=1;resizeParentMax=0;resizeLast=0;collapsible=1;marginBottom=0;labelBackgroundColor=#FFFFFF;fontColor=#000000;" vertex="1" parent="1">
          <mxGeometry x="1210" y="415.5" width="140" height="52" as="geometry" />
        </mxCell>
        <mxCell id="FV6NNWEBZr1uqeipVd97-65" value="+ data: []RecommendList" style="text;strokeColor=none;fillColor=none;align=left;verticalAlign=top;spacingLeft=4;spacingRight=4;overflow=hidden;rotatable=0;points=[[0,0.5],[1,0.5]];portConstraint=eastwest;labelBackgroundColor=#FFFFFF;fontColor=#000000;" vertex="1" parent="FV6NNWEBZr1uqeipVd97-64">
          <mxGeometry y="26" width="140" height="26" as="geometry" />
        </mxCell>
        <mxCell id="FV6NNWEBZr1uqeipVd97-148" style="edgeStyle=orthogonalEdgeStyle;rounded=0;orthogonalLoop=1;jettySize=auto;html=1;exitX=0.5;exitY=1;exitDx=0;exitDy=0;entryX=0.5;entryY=0;entryDx=0;entryDy=0;fontSize=12;fontColor=#000000;startArrow=none;startFill=0;endArrow=classic;endFill=1;endSize=8;" edge="1" parent="1" source="FV6NNWEBZr1uqeipVd97-73" target="FV6NNWEBZr1uqeipVd97-147">
          <mxGeometry relative="1" as="geometry" />
        </mxCell>
        <mxCell id="FV6NNWEBZr1uqeipVd97-149" value="[]IItemId, OpResult&amp;nbsp;" style="edgeLabel;html=1;align=center;verticalAlign=middle;resizable=0;points=[];fontSize=12;fontColor=#000000;" vertex="1" connectable="0" parent="FV6NNWEBZr1uqeipVd97-148">
          <mxGeometry x="-0.2326" y="-2" relative="1" as="geometry">
            <mxPoint y="1" as="offset" />
          </mxGeometry>
        </mxCell>
        <mxCell id="FV6NNWEBZr1uqeipVd97-73" value="&lt;font face=&quot;Menlo, Monaco, Courier New, monospace&quot;&gt;UniqueFilter&lt;br&gt;[]Dunit&lt;br&gt;&lt;/font&gt;" style="rounded=0;whiteSpace=wrap;html=1;labelBackgroundColor=#FFFFFF;fontColor=#000000;" vertex="1" parent="1">
          <mxGeometry x="1010" y="1134.5" width="110" height="35" as="geometry" />
        </mxCell>
        <mxCell id="FV6NNWEBZr1uqeipVd97-138" style="edgeStyle=orthogonalEdgeStyle;rounded=0;orthogonalLoop=1;jettySize=auto;html=1;exitX=0.5;exitY=0;exitDx=0;exitDy=0;entryX=0.413;entryY=1.017;entryDx=0;entryDy=0;entryPerimeter=0;fontColor=#000000;startArrow=classic;startFill=1;endArrow=none;endFill=0;endSize=8;" edge="1" parent="1" source="FV6NNWEBZr1uqeipVd97-74" target="FV6NNWEBZr1uqeipVd97-105">
          <mxGeometry relative="1" as="geometry" />
        </mxCell>
        <mxCell id="FV6NNWEBZr1uqeipVd97-139" value="&lt;span style=&quot;font-family: Menlo, Monaco, &amp;quot;Courier New&amp;quot;, monospace; font-size: 12px;&quot;&gt;MbpResponse&lt;/span&gt;" style="edgeLabel;html=1;align=center;verticalAlign=middle;resizable=0;points=[];fontColor=#000000;" vertex="1" connectable="0" parent="FV6NNWEBZr1uqeipVd97-138">
          <mxGeometry x="-0.111" relative="1" as="geometry">
            <mxPoint as="offset" />
          </mxGeometry>
        </mxCell>
        <mxCell id="FV6NNWEBZr1uqeipVd97-142" style="edgeStyle=orthogonalEdgeStyle;rounded=0;orthogonalLoop=1;jettySize=auto;html=1;exitX=0.5;exitY=1;exitDx=0;exitDy=0;entryX=0.5;entryY=0;entryDx=0;entryDy=0;fontSize=16;fontColor=#000000;startArrow=none;startFill=0;endArrow=classic;endFill=1;endSize=8;" edge="1" parent="1" source="FV6NNWEBZr1uqeipVd97-74" target="FV6NNWEBZr1uqeipVd97-73">
          <mxGeometry relative="1" as="geometry" />
        </mxCell>
        <mxCell id="FV6NNWEBZr1uqeipVd97-143" value="&lt;font style=&quot;font-size: 12px;&quot;&gt;[]Dunit&lt;/font&gt;" style="edgeLabel;html=1;align=center;verticalAlign=middle;resizable=0;points=[];fontSize=16;fontColor=#000000;" vertex="1" connectable="0" parent="FV6NNWEBZr1uqeipVd97-142">
          <mxGeometry x="-0.0191" y="-4" relative="1" as="geometry">
            <mxPoint y="-5" as="offset" />
          </mxGeometry>
        </mxCell>
        <mxCell id="FV6NNWEBZr1uqeipVd97-74" value="ParseMbpResponse" style="rounded=0;whiteSpace=wrap;html=1;labelBackgroundColor=#FFFFFF;fontColor=#000000;" vertex="1" parent="1">
          <mxGeometry x="900" y="758" width="130" height="35" as="geometry" />
        </mxCell>
        <mxCell id="FV6NNWEBZr1uqeipVd97-75" value="&lt;font face=&quot;Menlo, Monaco, Courier New, monospace&quot;&gt;item []Dunit&lt;/font&gt;" style="rounded=0;whiteSpace=wrap;html=1;labelBackgroundColor=#FFFFFF;fontColor=#000000;" vertex="1" parent="1">
          <mxGeometry x="1370" y="1181.5" width="110" height="35" as="geometry" />
        </mxCell>
        <mxCell id="FV6NNWEBZr1uqeipVd97-76" value="&lt;font face=&quot;Menlo, Monaco, Courier New, monospace&quot;&gt;map[cate][]Dunit&lt;/font&gt;" style="rounded=0;whiteSpace=wrap;html=1;labelBackgroundColor=#FFFFFF;fontColor=#000000;" vertex="1" parent="1">
          <mxGeometry x="1470" y="1142.5" width="110" height="35" as="geometry" />
        </mxCell>
        <mxCell id="FV6NNWEBZr1uqeipVd97-78" value="codis" style="shape=cylinder3;whiteSpace=wrap;html=1;boundedLbl=1;backgroundOutline=1;size=15;" vertex="1" parent="1">
          <mxGeometry x="1620" y="932.5" width="60" height="80" as="geometry" />
        </mxCell>
        <mxCell id="FV6NNWEBZr1uqeipVd97-79" value="recommend list" style="text;html=1;resizable=0;autosize=1;align=center;verticalAlign=middle;points=[];fillColor=none;strokeColor=none;rounded=0;labelBackgroundColor=#FFFFFF;fontColor=#000000;" vertex="1" parent="1">
          <mxGeometry x="1660" y="825" width="100" height="30" as="geometry" />
        </mxCell>
        <mxCell id="FV6NNWEBZr1uqeipVd97-81" value="item detail" style="text;html=1;resizable=0;autosize=1;align=center;verticalAlign=middle;points=[];fillColor=none;strokeColor=none;rounded=0;labelBackgroundColor=#FFFFFF;fontColor=#000000;" vertex="1" parent="1">
          <mxGeometry x="1660" y="957.5" width="80" height="30" as="geometry" />
        </mxCell>
        <mxCell id="FV6NNWEBZr1uqeipVd97-82" value="&lt;font face=&quot;Menlo, Monaco, Courier New, monospace&quot;&gt;item cate&lt;/font&gt;" style="rounded=0;whiteSpace=wrap;html=1;labelBackgroundColor=#FFFFFF;fontColor=#000000;" vertex="1" parent="1">
          <mxGeometry x="1370" y="1082.5" width="110" height="35" as="geometry" />
        </mxCell>
        <mxCell id="FV6NNWEBZr1uqeipVd97-83" value="&lt;font face=&quot;Menlo, Monaco, Courier New, monospace&quot;&gt;map[itemid&lt;br&gt;]cate&lt;/font&gt;" style="rounded=0;whiteSpace=wrap;html=1;labelBackgroundColor=#FFFFFF;fontColor=#000000;" vertex="1" parent="1">
          <mxGeometry x="1540" y="1270" width="110" height="35" as="geometry" />
        </mxCell>
        <mxCell id="FV6NNWEBZr1uqeipVd97-84" value="loop" style="strokeWidth=1;html=1;shape=mxgraph.flowchart.decision;whiteSpace=wrap;labelBackgroundColor=#FFFFFF;fontColor=#000000;" vertex="1" parent="1">
          <mxGeometry x="1375" y="1212.5" width="100" height="100" as="geometry" />
        </mxCell>
        <mxCell id="FV6NNWEBZr1uqeipVd97-85" value="&lt;font face=&quot;Menlo, Monaco, Courier New, monospace&quot;&gt;[]cate&lt;/font&gt;" style="rounded=0;whiteSpace=wrap;html=1;labelBackgroundColor=#FFFFFF;fontColor=#000000;" vertex="1" parent="1">
          <mxGeometry x="1510" y="1181.5" width="110" height="35" as="geometry" />
        </mxCell>
        <mxCell id="FV6NNWEBZr1uqeipVd97-86" value="&lt;span style=&quot;font-family: Menlo, Monaco, &amp;quot;Courier New&amp;quot;, monospace;&quot;&gt;MergeoldCateList&lt;/span&gt;" style="rounded=0;whiteSpace=wrap;html=1;labelBackgroundColor=#FFFFFF;fontColor=#000000;" vertex="1" parent="1">
          <mxGeometry x="1230" y="1261.5" width="120" height="35" as="geometry" />
        </mxCell>
        <mxCell id="FV6NNWEBZr1uqeipVd97-87" value="&lt;span style=&quot;font-family: Menlo, Monaco, &amp;quot;Courier New&amp;quot;, monospace;&quot;&gt;MergeoldUnitList&lt;/span&gt;" style="rounded=0;whiteSpace=wrap;html=1;labelBackgroundColor=#FFFFFF;fontColor=#000000;" vertex="1" parent="1">
          <mxGeometry x="1400" y="1261.5" width="120" height="35" as="geometry" />
        </mxCell>
        <mxCell id="FV6NNWEBZr1uqeipVd97-96" value="&lt;meta charset=&quot;utf-8&quot;&gt;&lt;span style=&quot;color: rgb(0, 0, 0); font-family: Menlo, Monaco, &amp;quot;Courier New&amp;quot;, monospace; font-size: 12px; font-style: normal; font-variant-ligatures: normal; font-variant-caps: normal; font-weight: 400; letter-spacing: normal; orphans: 2; text-align: center; text-indent: 0px; text-transform: none; widows: 2; word-spacing: 0px; -webkit-text-stroke-width: 0px; background-color: rgb(255, 255, 255); text-decoration-thickness: initial; text-decoration-style: initial; text-decoration-color: initial; float: none; display: inline !important;&quot;&gt;MbpResponse.&lt;/span&gt;&lt;br style=&quot;color: rgb(0, 0, 0); font-family: Menlo, Monaco, &amp;quot;Courier New&amp;quot;, monospace; font-size: 12px; font-style: normal; font-variant-ligatures: normal; font-variant-caps: normal; font-weight: 400; letter-spacing: normal; orphans: 2; text-align: center; text-indent: 0px; text-transform: none; widows: 2; word-spacing: 0px; -webkit-text-stroke-width: 0px; background-color: rgb(255, 255, 255); text-decoration-thickness: initial; text-decoration-style: initial; text-decoration-color: initial;&quot;&gt;&lt;span style=&quot;color: rgb(0, 0, 0); font-family: Menlo, Monaco, &amp;quot;Courier New&amp;quot;, monospace; font-size: 12px; font-style: normal; font-variant-ligatures: normal; font-variant-caps: normal; font-weight: 400; letter-spacing: normal; orphans: 2; text-align: center; text-indent: 0px; text-transform: none; widows: 2; word-spacing: 0px; -webkit-text-stroke-width: 0px; background-color: rgb(255, 255, 255); text-decoration-thickness: initial; text-decoration-style: initial; text-decoration-color: initial; float: none; display: inline !important;&quot;&gt;Sections[0].Dunit&lt;/span&gt;" style="text;whiteSpace=wrap;html=1;fontColor=#000000;" vertex="1" parent="1">
          <mxGeometry x="1650" y="1109.5" width="160" height="50" as="geometry" />
        </mxCell>
        <mxCell id="FV6NNWEBZr1uqeipVd97-100" style="edgeStyle=orthogonalEdgeStyle;rounded=0;orthogonalLoop=1;jettySize=auto;html=1;exitX=0.5;exitY=1;exitDx=0;exitDy=0;entryX=0.5;entryY=0;entryDx=0;entryDy=0;entryPerimeter=0;fontColor=#000000;" edge="1" parent="1" source="FV6NNWEBZr1uqeipVd97-98" target="FV6NNWEBZr1uqeipVd97-99">
          <mxGeometry relative="1" as="geometry" />
        </mxCell>
        <mxCell id="FV6NNWEBZr1uqeipVd97-101" value="OpResult" style="edgeLabel;html=1;align=center;verticalAlign=middle;resizable=0;points=[];fontColor=#000000;" vertex="1" connectable="0" parent="FV6NNWEBZr1uqeipVd97-100">
          <mxGeometry x="-0.2286" y="2" relative="1" as="geometry">
            <mxPoint y="1" as="offset" />
          </mxGeometry>
        </mxCell>
        <mxCell id="FV6NNWEBZr1uqeipVd97-98" value="&lt;font face=&quot;Menlo, Monaco, Courier New, monospace&quot;&gt;ValidCheck&lt;/font&gt;" style="rounded=0;whiteSpace=wrap;html=1;labelBackgroundColor=#FFFFFF;fontColor=#000000;" vertex="1" parent="1">
          <mxGeometry x="1037" y="390" width="110" height="35" as="geometry" />
        </mxCell>
        <mxCell id="FV6NNWEBZr1uqeipVd97-99" value="switch" style="strokeWidth=1;html=1;shape=mxgraph.flowchart.decision;whiteSpace=wrap;labelBackgroundColor=#FFFFFF;fontColor=#000000;" vertex="1" parent="1">
          <mxGeometry x="1042" y="470" width="98" height="80" as="geometry" />
        </mxCell>
        <mxCell id="FV6NNWEBZr1uqeipVd97-105" value="&lt;b&gt;&lt;font style=&quot;font-size: 16px;&quot; color=&quot;#6666ff&quot;&gt;subgraph&lt;/font&gt;: NUZ_MBP_RECALL&lt;br&gt;&lt;font style=&quot;font-size: 16px;&quot; color=&quot;#6666ff&quot;&gt;in&lt;/font&gt;[&lt;span style=&quot;font-family: Menlo, Monaco, &amp;quot;Courier New&amp;quot;, monospace; text-align: center;&quot;&gt;PnRcmdRequest,&amp;nbsp;&lt;/span&gt;&lt;span style=&quot;font-family: Menlo, Monaco, &amp;quot;Courier New&amp;quot;, monospace; text-align: center;&quot;&gt;MbpResponse&lt;/span&gt;]&lt;br&gt;&lt;font style=&quot;font-size: 16px;&quot; color=&quot;#6666ff&quot;&gt;out&lt;/font&gt;[]&lt;/b&gt;" style="text;html=1;resizable=0;autosize=1;align=left;verticalAlign=middle;points=[];fillColor=none;strokeColor=none;rounded=0;labelBackgroundColor=#FFFFFF;fontColor=#000000;" vertex="1" parent="1">
          <mxGeometry x="870" y="575" width="230" height="70" as="geometry" />
        </mxCell>
        <mxCell id="FV6NNWEBZr1uqeipVd97-108" value="" style="edgeStyle=orthogonalEdgeStyle;rounded=0;orthogonalLoop=1;jettySize=auto;html=1;fontColor=#000000;" edge="1" parent="1" source="FV6NNWEBZr1uqeipVd97-106" target="FV6NNWEBZr1uqeipVd97-107">
          <mxGeometry relative="1" as="geometry" />
        </mxCell>
        <mxCell id="FV6NNWEBZr1uqeipVd97-120" style="edgeStyle=orthogonalEdgeStyle;rounded=0;orthogonalLoop=1;jettySize=auto;html=1;exitX=0.5;exitY=1;exitDx=0;exitDy=0;entryX=0.5;entryY=0;entryDx=0;entryDy=0;fontColor=#000000;endArrow=classic;endFill=1;" edge="1" parent="1" source="FV6NNWEBZr1uqeipVd97-106" target="FV6NNWEBZr1uqeipVd97-111">
          <mxGeometry relative="1" as="geometry" />
        </mxCell>
        <mxCell id="FV6NNWEBZr1uqeipVd97-122" value="dbfn" style="edgeLabel;html=1;align=center;verticalAlign=middle;resizable=0;points=[];fontColor=#000000;" vertex="1" connectable="0" parent="FV6NNWEBZr1uqeipVd97-120">
          <mxGeometry x="-0.6071" y="1" relative="1" as="geometry">
            <mxPoint as="offset" />
          </mxGeometry>
        </mxCell>
        <mxCell id="FV6NNWEBZr1uqeipVd97-106" value="&lt;span style=&quot;font-family: Menlo, Monaco, &amp;quot;Courier New&amp;quot;, monospace;&quot;&gt;Codisdb&lt;/span&gt;" style="rounded=0;whiteSpace=wrap;html=1;labelBackgroundColor=#FFFFFF;fontColor=#000000;" vertex="1" parent="1">
          <mxGeometry x="1310" y="755" width="110" height="35" as="geometry" />
        </mxCell>
        <mxCell id="FV6NNWEBZr1uqeipVd97-109" value="" style="edgeStyle=orthogonalEdgeStyle;rounded=0;orthogonalLoop=1;jettySize=auto;html=1;fontColor=#000000;endArrow=none;endFill=0;" edge="1" parent="1" source="FV6NNWEBZr1uqeipVd97-107" target="FV6NNWEBZr1uqeipVd97-106">
          <mxGeometry relative="1" as="geometry" />
        </mxCell>
        <mxCell id="FV6NNWEBZr1uqeipVd97-110" value="conf" style="edgeLabel;html=1;align=center;verticalAlign=middle;resizable=0;points=[];fontColor=#000000;" vertex="1" connectable="0" parent="FV6NNWEBZr1uqeipVd97-109">
          <mxGeometry y="1" relative="1" as="geometry">
            <mxPoint as="offset" />
          </mxGeometry>
        </mxCell>
        <mxCell id="FV6NNWEBZr1uqeipVd97-107" value="dbname" style="shape=document;whiteSpace=wrap;html=1;boundedLbl=1;fontColor=#000000;rounded=0;labelBackgroundColor=#FFFFFF;" vertex="1" parent="1">
          <mxGeometry x="1480" y="752.5" width="65" height="40" as="geometry" />
        </mxCell>
        <mxCell id="FV6NNWEBZr1uqeipVd97-128" style="edgeStyle=orthogonalEdgeStyle;rounded=0;orthogonalLoop=1;jettySize=auto;html=1;exitX=0.5;exitY=1;exitDx=0;exitDy=0;entryX=0.5;entryY=0;entryDx=0;entryDy=0;fontColor=#000000;endArrow=classic;endFill=1;" edge="1" parent="1" source="FV6NNWEBZr1uqeipVd97-111" target="FV6NNWEBZr1uqeipVd97-125">
          <mxGeometry relative="1" as="geometry" />
        </mxCell>
        <mxCell id="FV6NNWEBZr1uqeipVd97-129" value="[]byte" style="edgeLabel;html=1;align=center;verticalAlign=middle;resizable=0;points=[];fontColor=#000000;" vertex="1" connectable="0" parent="FV6NNWEBZr1uqeipVd97-128">
          <mxGeometry x="-0.2235" y="-4" relative="1" as="geometry">
            <mxPoint x="2" as="offset" />
          </mxGeometry>
        </mxCell>
        <mxCell id="FV6NNWEBZr1uqeipVd97-111" value="&lt;span style=&quot;font-family: Menlo, Monaco, &amp;quot;Courier New&amp;quot;, monospace;&quot;&gt;CodisGet(item)&lt;/span&gt;" style="rounded=0;whiteSpace=wrap;html=1;labelBackgroundColor=#FFFFFF;fontColor=#000000;" vertex="1" parent="1">
          <mxGeometry x="1110" y="870" width="110" height="35" as="geometry" />
        </mxCell>
        <mxCell id="FV6NNWEBZr1uqeipVd97-114" value="format" style="shape=document;whiteSpace=wrap;html=1;boundedLbl=1;fontColor=#000000;rounded=0;labelBackgroundColor=#FFFFFF;" vertex="1" parent="1">
          <mxGeometry x="1070" y="753" width="65" height="40" as="geometry" />
        </mxCell>
        <mxCell id="FV6NNWEBZr1uqeipVd97-132" style="edgeStyle=orthogonalEdgeStyle;rounded=0;orthogonalLoop=1;jettySize=auto;html=1;exitX=0.5;exitY=1;exitDx=0;exitDy=0;entryX=0.5;entryY=0;entryDx=0;entryDy=0;fontColor=#000000;endArrow=classic;endFill=1;" edge="1" parent="1" source="FV6NNWEBZr1uqeipVd97-125" target="FV6NNWEBZr1uqeipVd97-73">
          <mxGeometry relative="1" as="geometry">
            <mxPoint x="1165" y="1020" as="targetPoint" />
          </mxGeometry>
        </mxCell>
        <mxCell id="FV6NNWEBZr1uqeipVd97-133" value="[]Dunit" style="edgeLabel;html=1;align=center;verticalAlign=middle;resizable=0;points=[];fontColor=#000000;" vertex="1" connectable="0" parent="FV6NNWEBZr1uqeipVd97-132">
          <mxGeometry x="-0.0133" y="4" relative="1" as="geometry">
            <mxPoint x="-2" y="-3" as="offset" />
          </mxGeometry>
        </mxCell>
        <mxCell id="FV6NNWEBZr1uqeipVd97-125" value="&lt;span style=&quot;&quot;&gt;RecommendListS&lt;br&gt;&lt;/span&gt;&lt;span style=&quot;font-family: Menlo, Monaco, &amp;quot;Courier New&amp;quot;, monospace;&quot;&gt;([]Dunit(item))&lt;/span&gt;" style="rounded=0;whiteSpace=wrap;html=1;labelBackgroundColor=#FFFFFF;fontColor=#000000;" vertex="1" parent="1">
          <mxGeometry x="1110" y="947.5" width="110" height="35" as="geometry" />
        </mxCell>
        <mxCell id="FV6NNWEBZr1uqeipVd97-126" value="&lt;span style=&quot;&quot;&gt;RecommendListS&lt;br&gt;&lt;/span&gt;&lt;span style=&quot;font-family: Menlo, Monaco, &amp;quot;Courier New&amp;quot;, monospace;&quot;&gt;([]Dunit(cate))&lt;/span&gt;" style="rounded=0;whiteSpace=wrap;html=1;labelBackgroundColor=#FFFFFF;fontColor=#000000;" vertex="1" parent="1">
          <mxGeometry x="1250" y="947.5" width="110" height="35" as="geometry" />
        </mxCell>
        <mxCell id="FV6NNWEBZr1uqeipVd97-151" style="edgeStyle=orthogonalEdgeStyle;rounded=0;orthogonalLoop=1;jettySize=auto;html=1;exitX=0.5;exitY=1;exitDx=0;exitDy=0;fontSize=12;fontColor=#000000;startArrow=none;startFill=0;endArrow=classic;endFill=1;endSize=8;" edge="1" parent="1" source="FV6NNWEBZr1uqeipVd97-147" target="FV6NNWEBZr1uqeipVd97-150">
          <mxGeometry relative="1" as="geometry" />
        </mxCell>
        <mxCell id="FV6NNWEBZr1uqeipVd97-152" value="[]validCacheKey" style="edgeLabel;html=1;align=center;verticalAlign=middle;resizable=0;points=[];fontSize=12;fontColor=#000000;" vertex="1" connectable="0" parent="FV6NNWEBZr1uqeipVd97-151">
          <mxGeometry x="-0.0824" y="3" relative="1" as="geometry">
            <mxPoint y="1" as="offset" />
          </mxGeometry>
        </mxCell>
        <mxCell id="FV6NNWEBZr1uqeipVd97-147" value="&lt;span style=&quot;font-family: Menlo, Monaco, &amp;quot;Courier New&amp;quot;, monospace;&quot;&gt;ItemDetailKey&lt;/span&gt;" style="rounded=0;whiteSpace=wrap;html=1;labelBackgroundColor=#FFFFFF;fontColor=#000000;" vertex="1" parent="1">
          <mxGeometry x="1010" y="1212.5" width="110" height="35" as="geometry" />
        </mxCell>
        <mxCell id="FV6NNWEBZr1uqeipVd97-150" value="&lt;span style=&quot;font-family: Menlo, Monaco, &amp;quot;Courier New&amp;quot;, monospace;&quot;&gt;CodisMGet&lt;br&gt;(itemCate)&lt;/span&gt;" style="rounded=0;whiteSpace=wrap;html=1;labelBackgroundColor=#FFFFFF;fontColor=#000000;" vertex="1" parent="1">
          <mxGeometry x="1010" y="1290" width="110" height="35" as="geometry" />
        </mxCell>
      </root>
    </mxGraphModel>
  </diagram>
</mxfile>
